<?xml version="1.0" standalone="no"?>
<!DOCTYPE svg PUBLIC "-//W3C//DTD SVG 20010904//EN"
 "http://www.w3.org/TR/2001/REC-SVG-20010904/DTD/svg10.dtd">
<svg version="1.0" xmlns="http://www.w3.org/2000/svg"
 width="1024.000000pt" height="1024.000000pt" viewBox="0 0 1024.000000 1024.000000"
 preserveAspectRatio="xMidYMid meet">
<metadata>
Created by potrace 1.11, written by Peter Selinger 2001-2013
</metadata>
<g transform="translate(0.000000,1024.000000) scale(0.100000,-0.100000)"
fill="#000000" stroke="none">
<path d="M4858 10236 c-1 -2 -50 -6 -108 -10 -58 -3 -116 -8 -130 -11 -14 -2
-50 -6 -80 -9 -83 -8 -139 -16 -350 -51 -121 -20 -388 -84 -510 -122 -47 -15
-89 -28 -95 -29 -27 -5 -265 -89 -312 -110 -17 -8 -34 -14 -38 -14 -4 0 -21
-6 -38 -14 -18 -8 -54 -24 -82 -36 -121 -51 -160 -69 -321 -151 -185 -94 -370
-202 -534 -313 -109 -73 -375 -271 -407 -303 -11 -10 -33 -29 -50 -43 -240
-196 -546 -521 -764 -810 -43 -58 -83 -110 -88 -116 -5 -6 -52 -76 -104 -155
-220 -334 -397 -685 -532 -1054 -20 -55 -39 -107 -42 -115 -3 -8 -7 -19 -9
-25 -2 -5 -19 -62 -39 -125 -19 -63 -37 -122 -39 -130 -40 -156 -66 -262 -71
-290 -3 -19 -10 -51 -15 -70 -5 -19 -11 -53 -15 -75 -3 -23 -8 -52 -10 -65 -9
-42 -28 -178 -40 -275 -3 -27 -8 -63 -10 -80 -27 -198 -27 -805 0 -1021 3 -22
7 -57 9 -79 14 -119 21 -166 52 -335 54 -296 86 -421 179 -705 31 -94 114
-316 135 -360 5 -11 19 -42 30 -70 30 -68 184 -379 216 -435 64 -112 144 -243
208 -340 65 -99 268 -374 318 -431 13 -15 43 -51 68 -80 148 -175 422 -445
604 -594 27 -22 54 -45 60 -50 6 -6 61 -47 121 -93 61 -45 115 -85 120 -90 69
-53 359 -237 455 -290 101 -55 350 -180 420 -211 41 -18 89 -39 105 -46 81
-37 374 -146 430 -160 6 -1 17 -5 25 -8 20 -8 83 -27 106 -32 10 -3 78 -20
149 -40 72 -19 144 -38 160 -40 17 -3 37 -8 45 -10 8 -2 31 -7 50 -10 19 -3
42 -8 50 -10 8 -2 29 -6 45 -9 17 -3 71 -12 120 -20 96 -17 138 -22 225 -31
30 -4 71 -8 90 -10 221 -26 860 -26 997 -1 10 2 50 7 88 10 39 4 80 8 90 10
11 2 43 7 70 10 28 4 73 11 100 16 28 5 64 12 80 15 473 77 1115 307 1559 559
54 31 100 56 103 56 5 0 92 56 263 168 209 138 407 293 604 474 167 152 405
402 498 524 12 16 25 31 28 34 8 7 122 153 138 176 7 11 43 62 80 114 253 355
491 823 643 1265 65 190 145 472 155 548 1 15 6 31 8 36 3 5 8 26 11 47 3 22
8 45 11 53 2 8 7 30 10 50 3 20 9 61 14 91 18 104 25 153 35 250 4 30 8 71 10
90 27 231 27 848 1 1000 -3 14 -7 50 -10 80 -3 30 -10 87 -15 125 -6 39 -13
88 -16 110 -3 22 -8 51 -11 65 -2 14 -6 36 -9 50 -63 337 -161 670 -290 991
-67 166 -192 430 -260 549 -21 36 -46 81 -57 100 -74 131 -200 322 -301 460
-74 101 -218 281 -252 316 -11 12 -40 45 -65 74 -112 131 -370 379 -540 519
-14 11 -32 27 -40 34 -26 24 -222 171 -290 217 -36 25 -69 49 -75 53 -5 5 -53
36 -105 69 -493 317 -1086 563 -1655 687 -134 29 -330 64 -425 76 -25 3 -56 7
-70 10 -14 2 -61 7 -105 10 -44 4 -98 9 -120 12 -47 5 -642 13 -647 9z"/>
</g>
</svg>
